<svg xmlns="http://www.w3.org/2000/svg" xmlns:xlink="http://www.w3.org/1999/xlink" style="height: 0; position: absolute">
  <symbol id="instagram" viewBox="0 0 16 16"><path d="M8 0C5.827 0 5.555.01 4.702.048 3.85.088 3.27.222 2.76.42c-.526.204-.973.478-1.417.923-.445.444-.72.89-.923 1.417-.198.51-.333 1.09-.372 1.942C.008 5.555 0 5.827 0 8s.01 2.445.048 3.298c.04.852.174 1.433.372 1.942.204.526.478.973.923 1.417.444.445.89.72 1.417.923.51.198 1.09.333 1.942.372.853.04 1.125.048 3.298.048s2.445-.01 3.298-.048c.852-.04 1.433-.174 1.942-.372.526-.204.973-.478 1.417-.923.445-.444.72-.89.923-1.417.198-.51.333-1.09.372-1.942.04-.853.048-1.125.048-3.298s-.01-2.445-.048-3.298c-.04-.852-.174-1.433-.372-1.942-.204-.526-.478-.973-.923-1.417-.444-.445-.89-.72-1.417-.923-.51-.198-1.09-.333-1.942-.372C10.445.008 10.173 0 8 0zm0 1.44c2.136 0 2.39.01 3.233.048.78.036 1.203.166 1.485.276.374.145.64.318.92.598.28.28.453.546.598.92.11.282.24.705.276 1.485.038.844.047 1.097.047 3.233s-.01 2.39-.048 3.233c-.036.78-.166 1.203-.276 1.485-.145.374-.318.64-.598.92-.28.28-.546.453-.92.598-.282.11-.705.24-1.485.276-.844.038-1.097.047-3.233.047s-2.39-.01-3.233-.048c-.78-.036-1.203-.166-1.485-.276-.374-.145-.64-.318-.92-.598-.28-.28-.453-.546-.598-.92-.11-.282-.24-.705-.276-1.485C1.45 10.39 1.44 10.136 1.44 8s.01-2.39.048-3.233c.036-.78.166-1.203.276-1.485.145-.374.318-.64.598-.92.28-.28.546-.453.92-.598.282-.11.705-.24 1.485-.276C5.61 1.45 5.864 1.44 8 1.44zm0 2.452c-2.27 0-4.108 1.84-4.108 4.108 0 2.27 1.84 4.108 4.108 4.108 2.27 0 4.108-1.84 4.108-4.108 0-2.27-1.84-4.108-4.108-4.108zm0 6.775c-1.473 0-2.667-1.194-2.667-2.667 0-1.473 1.194-2.667 2.667-2.667 1.473 0 2.667 1.194 2.667 2.667 0 1.473-1.194 2.667-2.667 2.667zm5.23-6.937c0 .53-.43.96-.96.96s-.96-.43-.96-.96.43-.96.96-.96.96.43.96.96z"/></symbol>
  <symbol id="youtubeobs" viewBox="0 0 16 16"><path d="M0 7.345c0-1.294.16-2.59.16-2.59s.156-1.1.636-1.587c.608-.637 1.408-.617 1.764-.684C3.84 2.36 8 2.324 8 2.324s3.362.004 5.6.166c.314.038.996.04 1.604.678.48.486.636 1.588.636 1.588S16 6.05 16 7.346v1.258c0 1.296-.16 2.59-.16 2.59s-.156 1.102-.636 1.588c-.608.638-1.29.64-1.604.678-2.238.162-5.6.166-5.6.166s-4.16-.037-5.44-.16c-.356-.067-1.156-.047-1.764-.684-.48-.487-.636-1.587-.636-1.587S0 9.9 0 8.605v-1.26zm6.348 2.73V5.58l4.323 2.255-4.32 2.24h-.002z"/></symbol>
  <symbol id="link" viewBox="0 0 16 16"><path d="M5.86 12.7l-.81.8c-.7.7-1.84.7-2.54 0a1.75 1.75 0 0 1 0-2.5l2.98-2.96c.61-.61 1.77-1.52 2.62-.68a1 1 0 1 0 1.4-1.4c-1.44-1.43-3.57-1.17-5.42.67L1.1 9.6a3.72 3.72 0 0 0 0 5.32 3.78 3.78 0 0 0 5.34 0l.8-.8a1 1 0 1 0-1.39-1.42zm9.03-11.5c-1.55-1.53-3.7-1.6-5.14-.19l-1 1a1 1 0 1 0 1.39 1.41l1-1c.75-.74 1.72-.43 2.35.2a1.75 1.75 0 0 1 0 2.5l-3.17 3.15c-1.46 1.45-2.14.77-2.43.48a1 1 0 0 0-1.4 1.4c.67.67 1.43 1 2.23 1 .98 0 2.01-.5 3-1.47l3.17-3.15a3.72 3.72 0 0 0 0-5.32z"/></symbol>
  <symbol id="email" viewBox="0 0 16 11"><path fill-rule="evenodd" d="M1.33 0h13.34L8 5 1.33 0zM16 0v11H0V0l8 6 8-6z"/></symbol>
  <symbol id="nav" viewBox="0 0 16 11"><path d="M0 12h16v-2H0v2zm0-5h16V5H0v2zm0-7v2h16V0H0z"/></symbol>
  
  
  <symbol id="youtube" viewBox="0 0 448 512">
  <path d="M282 256.2l-95.2-54.1 0 108.2 95.2-54.1zM384 32L64 32C28.7 32 0 60.7 0 96L0 416c0 35.3 28.7 64 64 64l320 0c35.3 0 64-28.7 64-64l0-320c0-35.3-28.7-64-64-64zm14.4 136.1c7.6 28.6 7.6 88.2 7.6 88.2s0 59.6-7.6 88.1c-4.2 15.8-16.5 27.7-32.2 31.9-28.3 7.7-142.2 7.7-142.2 7.7s-113.9 0-142.2-7.6c-15.7-4.2-28-16.1-32.2-31.9-7.6-28.6-7.6-88.2-7.6-88.2s0-59.7 7.6-88.2c4.2-15.8 16.5-28.2 32.2-32.4 28.3-7.7 142.2-7.7 142.2-7.7s113.9 0 142.2 7.7c15.7 4.2 28 16.6 32.2 32.4z"/>
</symbol>


<symbol id="soundcloud" viewBox="0 0 640 512">
  <path d="M640.2 298.6c-1.3 23.1-11.5 44.8-28.4 60.5s-39.2 24.4-62.3 24.1l-218 0c-4.8 0-9.4-2-12.8-5.4s-5.3-8-5.3-12.8l0-234.8c-.2-4 .9-8 3.1-11.4s5.3-6.1 9-7.7c0 0 20.1-13.9 62.3-13.9 25.8 0 51.1 6.9 73.3 20.1 17.3 10.2 32.3 23.8 44.1 40.1s20 34.8 24.2 54.4c7.5-2.1 15.3-3.2 23.1-3.2 11.7-.1 23.3 2.2 34.2 6.7s20.5 11.3 28.7 19.7 14.6 18.3 18.9 29.3 6.3 22.6 5.9 34.3zm-354-153.5c.1-1 0-2-.3-2.9s-.8-1.8-1.5-2.6-1.5-1.3-2.4-1.7c-1.8-.8-4-.8-5.8 0-.9 .4-1.7 1-2.4 1.7s-1.2 1.6-1.5 2.6-.4 1.9-.3 2.9c-6 78.9-10.6 152.9 0 231.6 .2 1.7 1 3.3 2.3 4.5 2.6 2.4 6.8 2.4 9.4 0 1.3-1.2 2.1-2.8 2.3-4.5 11.3-79.4 6.6-152 0-231.6l.2 0zm-44 27.3c-.2-1.8-1.1-3.5-2.4-4.7s-3.1-1.9-5-1.9-3.6 .7-5 1.9-2.2 2.9-2.4 4.7c-7.9 67.9-7.9 136.5 0 204.4 .3 1.8 1.2 3.4 2.5 4.5s3.1 1.8 4.8 1.8 3.5-.6 4.8-1.8 2.2-2.8 2.5-4.5c8.8-67.8 8.8-136.5 .1-204.4l.1 0zm-44.3-6.9c-.2-1.8-1-3.4-2.3-4.6s-3-1.8-4.8-1.8-3.5 .7-4.8 1.8-2.1 2.8-2.3 4.6c-6.7 72-10.2 139.3 0 211.1 0 1.9 .7 3.7 2.1 5s3.1 2.1 5 2.1 3.7-.7 5-2.1 2.1-3.1 2.1-5c10.5-72.8 7.3-138.2 .1-211.1l-.1 0zm-44 20.6c0-1.9-.8-3.8-2.1-5.2s-3.2-2.1-5.2-2.1-3.8 .8-5.2 2.1-2.1 3.2-2.1 5.2c-8.1 63.3-8.1 127.5 0 190.8 .2 1.8 1 3.4 2.4 4.6s3.1 1.9 4.8 1.9 3.5-.7 4.8-1.9 2.2-2.8 2.4-4.6c8.8-63.3 8.9-127.5 .3-190.8l-.1 0zm-44.5 47.6c0-1.9-.8-3.8-2.1-5.1s-3.2-2.1-5.1-2.1-3.8 .8-5.1 2.1-2.1 3.2-2.1 5.1c-10.5 49.2-5.5 93.9 .4 143.6 .3 1.6 1.1 3.1 2.3 4.2s2.8 1.7 4.5 1.7 3.2-.6 4.5-1.7 2.1-2.5 2.3-4.2c6.6-50.4 11.6-94.1 .4-143.6zm-44.1-7.5c-.2-1.8-1.1-3.5-2.4-4.8s-3.2-1.9-5-1.9-3.6 .7-5 1.9-2.2 2.9-2.4 4.8c-9.3 50.2-6.2 94.4 .3 144.5 .7 7.6 13.6 7.5 14.4 0 7.2-50.9 10.5-93.8 .3-144.5l-.2 0zM20.7 250.8c-.2-1.8-1.1-3.5-2.4-4.8s-3.2-1.9-5-1.9-3.6 .7-5 1.9-2.3 2.9-2.4 4.8c-8.5 33.7-5.9 61.6 .6 95.4 .2 1.7 1 3.3 2.3 4.4s2.9 1.8 4.7 1.8 3.4-.6 4.7-1.8 2.1-2.7 2.3-4.4c7.5-34.5 11.2-61.8 .4-95.4l-.2 0z"/>
</symbol>

<symbol id="spotify" viewBox="0 0 512 512">
  <path d="M256 8a248 248 0 1 0 0 496 248 248 0 1 0 0-496zM356.7 372.9c-4.2 0-6.8-1.3-10.7-3.6-62.4-37.6-135-39.2-206.7-24.5-3.9 1-9 2.6-11.9 2.6-9.7 0-15.8-7.7-15.8-15.8 0-10.3 6.1-15.2 13.6-16.8 81.9-18.1 165.6-16.5 237 26.2 6.1 3.9 9.7 7.4 9.7 16.5s-7.1 15.4-15.2 15.4zm26.9-65.6c-5.2 0-8.7-2.3-12.3-4.2-62.5-37-155.7-51.9-238.6-29.4-4.8 1.3-7.4 2.6-11.9 2.6-10.7 0-19.4-8.7-19.4-19.4s5.2-17.8 15.5-20.7c27.8-7.8 56.2-13.6 97.8-13.6 64.9 0 127.6 16.1 177 45.5 8.1 4.8 11.3 11 11.3 19.7-.1 10.8-8.5 19.5-19.4 19.5zm31-76.2c-5.2 0-8.4-1.3-12.9-3.9-71.2-42.5-198.5-52.7-280.9-29.7-3.6 1-8.1 2.6-12.9 2.6-13.2 0-23.3-10.3-23.3-23.6 0-13.6 8.4-21.3 17.4-23.9 35.2-10.3 74.6-15.2 117.5-15.2 73 0 149.5 15.2 205.4 47.8 7.8 4.5 12.9 10.7 12.9 22.6 0 13.6-11 23.3-23.2 23.3z"/>
</symbol>


</svg>
