<?xml version="1.0" encoding="UTF-8"?>
<svg version="1.1" xmlns="http://www.w3.org/2000/svg" width="32" height="32">
<path d="M0 0 C2.10705132 2.63381415 1.79101222 4.60111257 1.5 7.875 C0.18 8.205 -1.14 8.535 -2.5 8.875 C-2.83 7.225 -3.16 5.575 -3.5 3.875 C-5.81 3.875 -8.12 3.875 -10.5 3.875 C-10.83 4.865 -11.16 5.855 -11.5 6.875 C-10.63375 7.143125 -9.7675 7.41125 -8.875 7.6875 C1.14615385 11.21346154 1.14615385 11.21346154 3.5 14.875 C3.9375 18.375 3.9375 18.375 3.5 21.875 C0.66817276 24.65533947 -1.51526919 25.32665201 -5.4375 25.375 C-9.27178811 25.25623886 -10.32170774 25.00235161 -13.5625 22.6875 C-15.46676604 19.92324285 -16.21610268 18.18713541 -16.5 14.875 C-14.85 14.545 -13.2 14.215 -11.5 13.875 C-10.51 15.855 -9.52 17.835 -8.5 19.875 C-5.86 19.875 -3.22 19.875 -0.5 19.875 C-1.56199506 16.79588224 -2.43596854 15.91334703 -5.28515625 14.20703125 C-6.36667969 13.70558594 -7.44820312 13.20414063 -8.5625 12.6875 C-14.45515695 9.91984305 -14.45515695 9.91984305 -15.5 8.875 C-15.875 5.5 -15.875 5.5 -15.5 1.875 C-11.28547323 -2.20782281 -5.22751756 -2.3523829 0 0 Z " fill="#7C9648" transform="translate(22.5,4.125)"/>
<path d="M0 0 C1.32 0 2.64 0 4 0 C4.33 0.94875 4.66 1.8975 5 2.875 C7.14715571 6.22993079 7.39906894 6.45860274 11 7.3125 C12.33237407 7.54717952 13.66566914 7.77671479 15 8 C15.99 8.33 16.98 8.66 18 9 C13.76189465 11.82540356 9.97584134 11.77772321 5 11 C1.68382107 8.63130077 0.35576598 7.11812165 -0.875 3.25 C-0.91625 2.5075 -0.9575 1.765 -1 1 C-0.67 0.67 -0.34 0.34 0 0 Z " fill="#4D6630" transform="translate(7,18)"/>
<path d="M0 0 C3.69536586 0.28425891 6.3214771 0.5476514 9.4375 2.625 C11.5520177 5.83906691 11.28959898 8.23521325 11 12 C9.02 12.33 7.04 12.66 5 13 C5 12.01 5 11.02 5 10 C5.66 10 6.32 10 7 10 C6.25675659 7.60510457 5.52942646 6.29222384 3.30859375 5.06640625 C1.55926499 4.32780077 -0.21934149 3.65950315 -2 3 C-1.34 2.01 -0.68 1.02 0 0 Z " fill="#7F974B" transform="translate(15,14)"/>
<path d="M0 0 C3.3 0.33 6.6 0.66 10 1 C7 4 7 4 4.51953125 4.29296875 C3.17955078 4.24076172 3.17955078 4.24076172 1.8125 4.1875 C0.46091797 4.14689453 0.46091797 4.14689453 -0.91796875 4.10546875 C-1.60503906 4.07066406 -2.29210938 4.03585938 -3 4 C-1.68 3.34 -0.36 2.68 1 2 C0.67 1.34 0.34 0.68 0 0 Z " fill="#405E25" transform="translate(15,25)"/>
<path d="M0 0 C2.97 0 5.94 0 9 0 C9.33 1.65 9.66 3.3 10 5 C10.99 4.67 11.98 4.34 13 4 C12.67 4.99 12.34 5.98 12 7 C10.68 6.67 9.36 6.34 8 6 C8 4.68 8 3.36 8 2 C4.58343976 1.83322718 4.58343976 1.83322718 1 2 C0.34 2.66 -0.32 3.32 -1 4 C-0.67 2.68 -0.34 1.36 0 0 Z " fill="#253C18" transform="translate(11,6)"/>
<path d="M0 0 C-0.33 1.65 -0.66 3.3 -1 5 C-1.66 5 -2.32 5 -3 5 C-3.33 3.68 -3.66 2.36 -4 1 C-6.97 0.505 -6.97 0.505 -10 0 C-10 -0.33 -10 -0.66 -10 -1 C-5.92224809 -1.9267618 -3.57818963 -2.33958553 0 0 Z " fill="#6D8941" transform="translate(24,6)"/>
<path d="M0 0 C1.32 0 2.64 0 4 0 C4 1.98 4 3.96 4 6 C2.35 6.33 0.7 6.66 -1 7 C-1 6.01 -1 5.02 -1 4 C-0.34 4 0.32 4 1 4 C0.67 2.68 0.34 1.36 0 0 Z " fill="#85A04B" transform="translate(21,20)"/>
<path d="M0 0 C0.66 0 1.32 0 2 0 C2 0.66 2 1.32 2 2 C2.928125 2.1546875 2.928125 2.1546875 3.875 2.3125 C6 3 6 3 8 6 C6.35 6 4.7 6 3 6 C2.67 5.01 2.34 4.02 2 3 C1.34 3 0.68 3 0 3 C0 2.01 0 1.02 0 0 Z " fill="#A2B759" transform="translate(9,22)"/>
<path d="M0 0 C0.99 0.66 1.98 1.32 3 2 C3.1875 5.625 3.1875 5.625 3 9 C2.67 9 2.34 9 2 9 C1.67 7.35 1.34 5.7 1 4 C-0.98 3.34 -2.96 2.68 -5 2 C-4.01 1.67 -3.02 1.34 -2 1 C-1.34 1.33 -0.68 1.66 0 2 C0 1.34 0 0.68 0 0 Z " fill="#48692A" transform="translate(23,17)"/>
<path d="M0 0 C2.64 0 5.28 0 8 0 C8 0.66 8 1.32 8 2 C5.36 2.33 2.72 2.66 0 3 C0 2.01 0 1.02 0 0 Z " fill="#89A94E" transform="translate(12,3)"/>
</svg>
